{"title":"First.Aid.Kit.iTunes.Festival.2014.1080p.AC3.5.1","uid":11475096,"size":2898317839,"categoryP":"video","categoryS":"music_videos","magnet":"?xt=urn:btih:87fc8e75c2f441eda695388b9b35210c1cd971c1&amp;dn=First.Aid.Kit.iTunes.Festival.2014.1080p.AC3.5.1&amp;tr=udp%3A%2F%2Ftracker.openbittorrent.com%3A80&amp;tr=udp%3A%2F%2Fopen.demonii.com%3A1337&amp;tr=udp%3A%2F%2Ftracker.coppersurfer.tk%3A6969&amp;tr=udp%3A%2F%2Fexodus.desync.com%3A6969","seeders":1,"leechers":0,"uploader":"user101966","files":2,"time":1416097290,"description":"There's not much to add to the title of the video. In fact, I haven't even watched it yet. But I am 99.9% certain that it will play correctly. It wouldn't have played correctly if I'd trusted Windows Explorer to copy a file. Instead I had to use my own &quot;home made&quot; file copying utility in order to put the file where I wanted it (which was on a different drive).\n\nAfter that the conversion to AVI (source was a TS file and an AC3 file) instead of bringing up a Blue Screen, brought up this AVI instead.\n\nThe entire concert is 44:08 minutes long and here are the details:\n------------------------------------------------------------------\nGeneral\nComplete name                            : First Aid Kit - iTunes Festival 2014 (21-09-2014).AC3.5.1.avi\nFormat                                   : AVI\nFormat/Info                              : Audio Video Interleave\nFile size                                : 2.70 GiB\nDuration                                 : 44mn 8s\nOverall bit rate                         : 8 755 Kbps\n\nVideo\nID                                       : 0\nFormat                                   : AVC\nFormat/Info                              : Advanced Video Codec\nFormat profile                           : &lt;a class=&quot;__cf_email__&quot; href=&quot;/cdn-cgi/l/email-protection&quot; data-cfemail=&quot;9bd3f2fcf3dbd7afb5ab&quot;&gt;[email&amp;#160;protected]&lt;/a&gt;&lt;script cf-hash='f9e31' type=&quot;text/javascript&quot;&gt;\n/* &lt;![CDATA[ */!function(){try{var t=&quot;currentScript&quot;in document?document.currentScript:function(){for(var t=document.getElementsByTagName(&quot;script&quot;),e=t.length;e--;)if(t[e].getAttribute(&quot;cf-hash&quot;))return t[e]}();if(t&amp;&amp;t.previousSibling){var e,r,n,i,c=t.previousSibling,a=c.getAttribute(&quot;data-cfemail&quot;);if(a){for(e=&quot;&quot;,r=parseInt(a.substr(0,2),16),n=2;a.length-n;n+=2)i=parseInt(a.substr(n,2),16)^r,e+=String.fromCharCode(i);e=document.createTextNode(e),c.parentNode.replaceChild(e,c)}}}catch(u){}}();/* ]]&gt; */&lt;/script&gt;\nFormat settings, CABAC                   : Yes\nFormat settings, ReFrames                : 2 frames\nCodec ID                                 : H264\nDuration                                 : 44mn 8s\nBit rate                                 : 8 295 Kbps\nWidth                                    : 1 920 pixels\nHeight                                   : 1 080 pixels\nDisplay aspect ratio                     : 16:9\nFrame rate                               : 25.000 fps\nColor space                              : YUV\nChroma subsampling                       : 4:2:0\nBit depth                                : 8 bits\nScan type                                : Progressive\nBits/(Pixel*Frame)                       : 0.160\nStream size                              : 2.56 GiB (95%)\n\nAudio\nID                                       : 1\nFormat                                   : AC-3\nFormat/Info                              : Audio Coding 3\nMode extension                           : CM (complete main)\nFormat settings, Endianness              : Big\nCodec ID                                 : 2000\nDuration                                 : 44mn 8s\nBit rate mode                            : Constant\nBit rate                                 : 448 Kbps\nChannel(s)                               : 6 channels\nChannel positions                        : Front: L C R, Side: L R, LFE\nSampling rate                            : 48.0 KHz\nBit depth                                : 16 bits\nCompression mode                         : Lossy\nStream size                              : 141 MiB (5%)\nAlignment                                : Aligned on interleaves\nInterleave, duration                     : 32 ms (0.80 video frame)","torrent":{"xt":"urn:btih:87fc8e75c2f441eda695388b9b35210c1cd971c1","amp;dn":"First.Aid.Kit.iTunes.Festival.2014.1080p.AC3.5.1","amp;tr":["udp%3A%2F%2Ftracker.openbittorrent.com%3A80","udp%3A%2F%2Fopen.demonii.com%3A1337","udp%3A%2F%2Ftracker.coppersurfer.tk%3A6969","udp%3A%2F%2Fexodus.desync.com%3A6969"],"infoHash":"87fc8e75c2f441eda695388b9b35210c1cd971c1","infoHashBuffer":{"type":"Buffer","data":[135,252,142,117,194,244,65,237,166,149,56,139,155,53,33,12,28,217,113,193]},"announce":[],"urlList":[]}}